<?xml version="1.0" encoding="UTF-8" standalone="no"?><!DOCTYPE svg PUBLIC "-//W3C//DTD SVG 1.1//EN" "http://www.w3.org/Graphics/SVG/1.1/DTD/svg11.dtd"><!-- Generated by graphviz version 2.40.1 (20161225.0304)
 --><!-- Title: Tree Pages: 1 --><svg xmlns="http://www.w3.org/2000/svg" xmlns:xlink="http://www.w3.org/1999/xlink" width="1492pt" height="734pt" viewBox="0.00 0.00 1492.10 733.60">
<g id="graph0" class="graph" transform="scale(1 1) rotate(0) translate(4 729.6)">
<title>Tree</title>
<polygon fill="#ffffff" stroke="transparent" points="-4,4 -4,-729.6 1488.103,-729.6 1488.103,4 -4,4"/>
<!-- 0 -->
<g id="node1" class="node">
<title>0</title>
<polygon fill="#e7f3fc" stroke="#000000" points="589.828,-725.7003 448.275,-725.7003 448.275,-650.2997 589.828,-650.2997 589.828,-725.7003"/>
<text text-anchor="middle" x="519.0515" y="-709" font-family="Helvetica,sans-Serif" font-size="14.00" fill="#000000">OpenPrice &lt;= 3.615</text>
<text text-anchor="middle" x="519.0515" y="-692.2" font-family="Helvetica,sans-Serif" font-size="14.00" fill="#000000">gini = 0.498</text>
<text text-anchor="middle" x="519.0515" y="-675.4" font-family="Helvetica,sans-Serif" font-size="14.00" fill="#000000">samples = 1183</text>
<text text-anchor="middle" x="519.0515" y="-658.6" font-family="Helvetica,sans-Serif" font-size="14.00" fill="#000000">value = [553, 630]</text>
</g>
<!-- 1 -->
<g id="node2" class="node">
<title>1</title>
<polygon fill="#82c1ef" stroke="#000000" points="464.3678,-614.5003 321.7352,-614.5003 321.7352,-539.0997 464.3678,-539.0997 464.3678,-614.5003"/>
<text text-anchor="middle" x="393.0515" y="-597.8" font-family="Helvetica,sans-Serif" font-size="14.00" fill="#000000">ClosePrice &lt;= 3.645</text>
<text text-anchor="middle" x="393.0515" y="-581" font-family="Helvetica,sans-Serif" font-size="14.00" fill="#000000">gini = 0.395</text>
<text text-anchor="middle" x="393.0515" y="-564.2" font-family="Helvetica,sans-Serif" font-size="14.00" fill="#000000">samples = 547</text>
<text text-anchor="middle" x="393.0515" y="-547.4" font-family="Helvetica,sans-Serif" font-size="14.00" fill="#000000">value = [148, 399]</text>
</g>
<!-- 0&#45;&gt;1 -->
<g id="edge1" class="edge">
<title>0-&gt;1</title>
<path fill="none" stroke="#000000" d="M476.3936,-650.3528C465.7203,-640.9331 454.1743,-630.7433 443.1753,-621.0362"/>
<polygon fill="#000000" stroke="#000000" points="445.4791,-618.4013 435.6654,-614.4085 440.8472,-623.6497 445.4791,-618.4013"/>
<text text-anchor="middle" x="437.2223" y="-635.16" font-family="Helvetica,sans-Serif" font-size="14.00" fill="#000000">True</text>
</g>
<!-- 10 -->
<g id="node11" class="node">
<title>10</title>
<polygon fill="#f4c9aa" stroke="#000000" points="736.5851,-614.5003 601.5179,-614.5003 601.5179,-539.0997 736.5851,-539.0997 736.5851,-614.5003"/>
<text text-anchor="middle" x="669.0515" y="-597.8" font-family="Helvetica,sans-Serif" font-size="14.00" fill="#000000">ClosePrice &lt;= 10.0</text>
<text text-anchor="middle" x="669.0515" y="-581" font-family="Helvetica,sans-Serif" font-size="14.00" fill="#000000">gini = 0.463</text>
<text text-anchor="middle" x="669.0515" y="-564.2" font-family="Helvetica,sans-Serif" font-size="14.00" fill="#000000">samples = 636</text>
<text text-anchor="middle" x="669.0515" y="-547.4" font-family="Helvetica,sans-Serif" font-size="14.00" fill="#000000">value = [405, 231]</text>
</g>
<!-- 0&#45;&gt;10 -->
<g id="edge10" class="edge">
<title>0-&gt;10</title>
<path fill="none" stroke="#000000" d="M569.8347,-650.3528C582.7854,-640.7519 596.8153,-630.3511 610.135,-620.4768"/>
<polygon fill="#000000" stroke="#000000" points="612.3717,-623.1755 618.3206,-614.4085 608.2029,-617.5522 612.3717,-623.1755"/>
<text text-anchor="middle" x="614.6473" y="-634.9371" font-family="Helvetica,sans-Serif" font-size="14.00" fill="#000000">False</text>
</g>
<!-- 2 -->
<g id="node3" class="node">
<title>2</title>
<polygon fill="#f3c4a2" stroke="#000000" points="268.046,-503.3003 134.057,-503.3003 134.057,-427.8997 268.046,-427.8997 268.046,-503.3003"/>
<text text-anchor="middle" x="201.0515" y="-486.6" font-family="Helvetica,sans-Serif" font-size="14.00" fill="#000000">OpenPrice &lt;= 1.03</text>
<text text-anchor="middle" x="201.0515" y="-469.8" font-family="Helvetica,sans-Serif" font-size="14.00" fill="#000000">gini = 0.453</text>
<text text-anchor="middle" x="201.0515" y="-453" font-family="Helvetica,sans-Serif" font-size="14.00" fill="#000000">samples = 222</text>
<text text-anchor="middle" x="201.0515" y="-436.2" font-family="Helvetica,sans-Serif" font-size="14.00" fill="#000000">value = [145, 77]</text>
</g>
<!-- 1&#45;&gt;2 -->
<g id="edge2" class="edge">
<title>1-&gt;2</title>
<path fill="none" stroke="#000000" d="M328.0491,-539.1528C311.003,-529.2802 292.4962,-518.5617 275.0193,-508.4397"/>
<polygon fill="#000000" stroke="#000000" points="276.3946,-505.1916 265.987,-503.2085 272.8863,-511.249 276.3946,-505.1916"/>
</g>
<!-- 7 -->
<g id="node8" class="node">
<title>7</title>
<polygon fill="#3b9ee5" stroke="#000000" points="449.5335,-503.3003 336.5695,-503.3003 336.5695,-427.8997 449.5335,-427.8997 449.5335,-503.3003"/>
<text text-anchor="middle" x="393.0515" y="-486.6" font-family="Helvetica,sans-Serif" font-size="14.00" fill="#000000">Duration &lt;= 8.5</text>
<text text-anchor="middle" x="393.0515" y="-469.8" font-family="Helvetica,sans-Serif" font-size="14.00" fill="#000000">gini = 0.018</text>
<text text-anchor="middle" x="393.0515" y="-453" font-family="Helvetica,sans-Serif" font-size="14.00" fill="#000000">samples = 325</text>
<text text-anchor="middle" x="393.0515" y="-436.2" font-family="Helvetica,sans-Serif" font-size="14.00" fill="#000000">value = [3, 322]</text>
</g>
<!-- 1&#45;&gt;7 -->
<g id="edge7" class="edge">
<title>1-&gt;7</title>
<path fill="none" stroke="#000000" d="M393.0515,-539.1528C393.0515,-530.82 393.0515,-521.8845 393.0515,-513.2137"/>
<polygon fill="#000000" stroke="#000000" points="396.5516,-513.2084 393.0515,-503.2085 389.5516,-513.2085 396.5516,-513.2084"/>
</g>
<!-- 3 -->
<g id="node4" class="node">
<title>3</title>
<polygon fill="#abd5f4" stroke="#000000" points="112.1545,-383.8014 -.0515,-383.8014 -.0515,-324.9986 112.1545,-324.9986 112.1545,-383.8014"/>
<text text-anchor="middle" x="56.0515" y="-367" font-family="Helvetica,sans-Serif" font-size="14.00" fill="#000000">gini = 0.464</text>
<text text-anchor="middle" x="56.0515" y="-350.2" font-family="Helvetica,sans-Serif" font-size="14.00" fill="#000000">samples = 63</text>
<text text-anchor="middle" x="56.0515" y="-333.4" font-family="Helvetica,sans-Serif" font-size="14.00" fill="#000000">value = [23, 40]</text>
</g>
<!-- 2&#45;&gt;3 -->
<g id="edge3" class="edge">
<title>2-&gt;3</title>
<path fill="none" stroke="#000000" d="M151.9611,-427.9528C136.0094,-415.7194 118.3638,-402.1871 102.603,-390.1002"/>
<polygon fill="#000000" stroke="#000000" points="104.617,-387.234 94.5519,-383.9258 100.3572,-392.7887 104.617,-387.234"/>
</g>
<!-- 4 -->
<g id="node5" class="node">
<title>4</title>
<polygon fill="#eda775" stroke="#000000" points="271.828,-392.1003 130.275,-392.1003 130.275,-316.6997 271.828,-316.6997 271.828,-392.1003"/>
<text text-anchor="middle" x="201.0515" y="-375.4" font-family="Helvetica,sans-Serif" font-size="14.00" fill="#000000">OpenPrice &lt;= 2.445</text>
<text text-anchor="middle" x="201.0515" y="-358.6" font-family="Helvetica,sans-Serif" font-size="14.00" fill="#000000">gini = 0.357</text>
<text text-anchor="middle" x="201.0515" y="-341.8" font-family="Helvetica,sans-Serif" font-size="14.00" fill="#000000">samples = 159</text>
<text text-anchor="middle" x="201.0515" y="-325" font-family="Helvetica,sans-Serif" font-size="14.00" fill="#000000">value = [122, 37]</text>
</g>
<!-- 2&#45;&gt;4 -->
<g id="edge4" class="edge">
<title>2-&gt;4</title>
<path fill="none" stroke="#000000" d="M201.0515,-427.9528C201.0515,-419.62 201.0515,-410.6845 201.0515,-402.0137"/>
<polygon fill="#000000" stroke="#000000" points="204.5516,-402.0084 201.0515,-392.0085 197.5516,-402.0085 204.5516,-402.0084"/>
</g>
<!-- 5 -->
<g id="node6" class="node">
<title>5</title>
<polygon fill="#f3c3a1" stroke="#000000" points="194.1545,-272.6014 81.9485,-272.6014 81.9485,-213.7986 194.1545,-213.7986 194.1545,-272.6014"/>
<text text-anchor="middle" x="138.0515" y="-255.8" font-family="Helvetica,sans-Serif" font-size="14.00" fill="#000000">gini = 0.451</text>
<text text-anchor="middle" x="138.0515" y="-239" font-family="Helvetica,sans-Serif" font-size="14.00" fill="#000000">samples = 93</text>
<text text-anchor="middle" x="138.0515" y="-222.2" font-family="Helvetica,sans-Serif" font-size="14.00" fill="#000000">value = [61, 32]</text>
</g>
<!-- 4&#45;&gt;5 -->
<g id="edge5" class="edge">
<title>4-&gt;5</title>
<path fill="none" stroke="#000000" d="M179.7226,-316.7528C173.3005,-305.4173 166.2466,-292.9665 159.7977,-281.5838"/>
<polygon fill="#000000" stroke="#000000" points="162.7539,-279.7012 154.7793,-272.7258 156.6634,-283.1518 162.7539,-279.7012"/>
</g>
<!-- 6 -->
<g id="node7" class="node">
<title>6</title>
<polygon fill="#e78b49" stroke="#000000" points="316.3724,-272.6014 211.7306,-272.6014 211.7306,-213.7986 316.3724,-213.7986 316.3724,-272.6014"/>
<text text-anchor="middle" x="264.0515" y="-255.8" font-family="Helvetica,sans-Serif" font-size="14.00" fill="#000000">gini = 0.14</text>
<text text-anchor="middle" x="264.0515" y="-239" font-family="Helvetica,sans-Serif" font-size="14.00" fill="#000000">samples = 66</text>
<text text-anchor="middle" x="264.0515" y="-222.2" font-family="Helvetica,sans-Serif" font-size="14.00" fill="#000000">value = [61, 5]</text>
</g>
<!-- 4&#45;&gt;6 -->
<g id="edge6" class="edge">
<title>4-&gt;6</title>
<path fill="none" stroke="#000000" d="M222.3804,-316.7528C228.8025,-305.4173 235.8564,-292.9665 242.3053,-281.5838"/>
<polygon fill="#000000" stroke="#000000" points="245.4396,-283.1518 247.3237,-272.7258 239.3491,-279.7012 245.4396,-283.1518"/>
</g>
<!-- 8 -->
<g id="node9" class="node">
<title>8</title>
<polygon fill="#399de5" stroke="#000000" points="402.1545,-383.8014 289.9485,-383.8014 289.9485,-324.9986 402.1545,-324.9986 402.1545,-383.8014"/>
<text text-anchor="middle" x="346.0515" y="-367" font-family="Helvetica,sans-Serif" font-size="14.00" fill="#000000">gini = 0.0</text>
<text text-anchor="middle" x="346.0515" y="-350.2" font-family="Helvetica,sans-Serif" font-size="14.00" fill="#000000">samples = 258</text>
<text text-anchor="middle" x="346.0515" y="-333.4" font-family="Helvetica,sans-Serif" font-size="14.00" fill="#000000">value = [0, 258]</text>
</g>
<!-- 7&#45;&gt;8 -->
<g id="edge8" class="edge">
<title>7-&gt;8</title>
<path fill="none" stroke="#000000" d="M377.1394,-427.9528C372.4432,-416.8417 367.2941,-404.6592 362.5612,-393.4613"/>
<polygon fill="#000000" stroke="#000000" points="365.648,-391.7743 358.5309,-383.9258 359.2003,-394.4995 365.648,-391.7743"/>
</g>
<!-- 9 -->
<g id="node10" class="node">
<title>9</title>
<polygon fill="#42a2e6" stroke="#000000" points="524.3724,-383.8014 419.7306,-383.8014 419.7306,-324.9986 524.3724,-324.9986 524.3724,-383.8014"/>
<text text-anchor="middle" x="472.0515" y="-367" font-family="Helvetica,sans-Serif" font-size="14.00" fill="#000000">gini = 0.086</text>
<text text-anchor="middle" x="472.0515" y="-350.2" font-family="Helvetica,sans-Serif" font-size="14.00" fill="#000000">samples = 67</text>
<text text-anchor="middle" x="472.0515" y="-333.4" font-family="Helvetica,sans-Serif" font-size="14.00" fill="#000000">value = [3, 64]</text>
</g>
<!-- 7&#45;&gt;9 -->
<g id="edge9" class="edge">
<title>7-&gt;9</title>
<path fill="none" stroke="#000000" d="M419.7973,-427.9528C428.0099,-416.3928 437.0464,-403.673 445.2619,-392.1089"/>
<polygon fill="#000000" stroke="#000000" points="448.1371,-394.1051 451.0754,-383.9258 442.4305,-390.051 448.1371,-394.1051"/>
</g>
<!-- 11 -->
<g id="node12" class="node">
<title>11</title>
<polygon fill="#e9975b" stroke="#000000" points="736.046,-503.3003 602.057,-503.3003 602.057,-427.8997 736.046,-427.8997 736.046,-503.3003"/>
<text text-anchor="middle" x="669.0515" y="-486.6" font-family="Helvetica,sans-Serif" font-size="14.00" fill="#000000">OpenPrice &lt;= 4.97</text>
<text text-anchor="middle" x="669.0515" y="-469.8" font-family="Helvetica,sans-Serif" font-size="14.00" fill="#000000">gini = 0.25</text>
<text text-anchor="middle" x="669.0515" y="-453" font-family="Helvetica,sans-Serif" font-size="14.00" fill="#000000">samples = 246</text>
<text text-anchor="middle" x="669.0515" y="-436.2" font-family="Helvetica,sans-Serif" font-size="14.00" fill="#000000">value = [210, 36]</text>
</g>
<!-- 10&#45;&gt;11 -->
<g id="edge11" class="edge">
<title>10-&gt;11</title>
<path fill="none" stroke="#000000" d="M669.0515,-539.1528C669.0515,-530.82 669.0515,-521.8845 669.0515,-513.2137"/>
<polygon fill="#000000" stroke="#000000" points="672.5516,-513.2084 669.0515,-503.2085 665.5516,-513.2085 672.5516,-513.2084"/>
</g>
<!-- 18 -->
<g id="node19" class="node">
<title>18</title>
<polygon fill="#ffffff" stroke="#000000" points="1005.828,-503.3003 864.275,-503.3003 864.275,-427.8997 1005.828,-427.8997 1005.828,-503.3003"/>
<text text-anchor="middle" x="935.0515" y="-486.6" font-family="Helvetica,sans-Serif" font-size="14.00" fill="#000000">OpenPrice &lt;= 10.97</text>
<text text-anchor="middle" x="935.0515" y="-469.8" font-family="Helvetica,sans-Serif" font-size="14.00" fill="#000000">gini = 0.5</text>
<text text-anchor="middle" x="935.0515" y="-453" font-family="Helvetica,sans-Serif" font-size="14.00" fill="#000000">samples = 390</text>
<text text-anchor="middle" x="935.0515" y="-436.2" font-family="Helvetica,sans-Serif" font-size="14.00" fill="#000000">value = [195, 195]</text>
</g>
<!-- 10&#45;&gt;18 -->
<g id="edge18" class="edge">
<title>10-&gt;18</title>
<path fill="none" stroke="#000000" d="M736.8628,-548.4518C772.7632,-533.4438 817.0825,-514.9164 854.7006,-499.1903"/>
<polygon fill="#000000" stroke="#000000" points="856.2347,-502.3426 864.111,-495.2563 853.5348,-495.8842 856.2347,-502.3426"/>
</g>
<!-- 12 -->
<g id="node13" class="node">
<title>12</title>
<polygon fill="#f5d0b5" stroke="#000000" points="654.1545,-383.8014 541.9485,-383.8014 541.9485,-324.9986 654.1545,-324.9986 654.1545,-383.8014"/>
<text text-anchor="middle" x="598.0515" y="-367" font-family="Helvetica,sans-Serif" font-size="14.00" fill="#000000">gini = 0.473</text>
<text text-anchor="middle" x="598.0515" y="-350.2" font-family="Helvetica,sans-Serif" font-size="14.00" fill="#000000">samples = 52</text>
<text text-anchor="middle" x="598.0515" y="-333.4" font-family="Helvetica,sans-Serif" font-size="14.00" fill="#000000">value = [32, 20]</text>
</g>
<!-- 11&#45;&gt;12 -->
<g id="edge12" class="edge">
<title>11-&gt;12</title>
<path fill="none" stroke="#000000" d="M645.0141,-427.9528C637.7049,-416.505 629.6694,-403.9199 622.3435,-392.446"/>
<polygon fill="#000000" stroke="#000000" points="625.235,-390.4708 616.9034,-383.9258 619.335,-394.2379 625.235,-390.4708"/>
</g>
<!-- 13 -->
<g id="node14" class="node">
<title>13</title>
<polygon fill="#e78c4b" stroke="#000000" points="807.5851,-392.1003 672.5179,-392.1003 672.5179,-316.6997 807.5851,-316.6997 807.5851,-392.1003"/>
<text text-anchor="middle" x="740.0515" y="-375.4" font-family="Helvetica,sans-Serif" font-size="14.00" fill="#000000">ClosePrice &lt;= 6.82</text>
<text text-anchor="middle" x="740.0515" y="-358.6" font-family="Helvetica,sans-Serif" font-size="14.00" fill="#000000">gini = 0.151</text>
<text text-anchor="middle" x="740.0515" y="-341.8" font-family="Helvetica,sans-Serif" font-size="14.00" fill="#000000">samples = 194</text>
<text text-anchor="middle" x="740.0515" y="-325" font-family="Helvetica,sans-Serif" font-size="14.00" fill="#000000">value = [178, 16]</text>
</g>
<!-- 11&#45;&gt;13 -->
<g id="edge13" class="edge">
<title>11-&gt;13</title>
<path fill="none" stroke="#000000" d="M693.0889,-427.9528C698.6984,-419.1671 704.7357,-409.7115 710.5517,-400.6025"/>
<polygon fill="#000000" stroke="#000000" points="713.6073,-402.3205 716.0389,-392.0085 707.7074,-398.5534 713.6073,-402.3205"/>
</g>
<!-- 14 -->
<g id="node15" class="node">
<title>14</title>
<polygon fill="#e68641" stroke="#000000" points="651.3724,-272.6014 546.7306,-272.6014 546.7306,-213.7986 651.3724,-213.7986 651.3724,-272.6014"/>
<text text-anchor="middle" x="599.0515" y="-255.8" font-family="Helvetica,sans-Serif" font-size="14.00" fill="#000000">gini = 0.072</text>
<text text-anchor="middle" x="599.0515" y="-239" font-family="Helvetica,sans-Serif" font-size="14.00" fill="#000000">samples = 80</text>
<text text-anchor="middle" x="599.0515" y="-222.2" font-family="Helvetica,sans-Serif" font-size="14.00" fill="#000000">value = [77, 3]</text>
</g>
<!-- 13&#45;&gt;14 -->
<g id="edge14" class="edge">
<title>13-&gt;14</title>
<path fill="none" stroke="#000000" d="M692.3153,-316.7528C676.9459,-304.6316 659.9596,-291.2353 644.7411,-279.2332"/>
<polygon fill="#000000" stroke="#000000" points="646.5092,-276.1701 636.4898,-272.7258 642.1744,-281.6665 646.5092,-276.1701"/>
</g>
<!-- 15 -->
<g id="node16" class="node">
<title>15</title>
<polygon fill="#e89152" stroke="#000000" points="810.828,-280.9003 669.275,-280.9003 669.275,-205.4997 810.828,-205.4997 810.828,-280.9003"/>
<text text-anchor="middle" x="740.0515" y="-264.2" font-family="Helvetica,sans-Serif" font-size="14.00" fill="#000000">OpenPrice &lt;= 7.995</text>
<text text-anchor="middle" x="740.0515" y="-247.4" font-family="Helvetica,sans-Serif" font-size="14.00" fill="#000000">gini = 0.202</text>
<text text-anchor="middle" x="740.0515" y="-230.6" font-family="Helvetica,sans-Serif" font-size="14.00" fill="#000000">samples = 114</text>
<text text-anchor="middle" x="740.0515" y="-213.8" font-family="Helvetica,sans-Serif" font-size="14.00" fill="#000000">value = [101, 13]</text>
</g>
<!-- 13&#45;&gt;15 -->
<g id="edge15" class="edge">
<title>13-&gt;15</title>
<path fill="none" stroke="#000000" d="M740.0515,-316.7528C740.0515,-308.42 740.0515,-299.4845 740.0515,-290.8137"/>
<polygon fill="#000000" stroke="#000000" points="743.5516,-290.8084 740.0515,-280.8085 736.5516,-290.8085 743.5516,-290.8084"/>
</g>
<!-- 16 -->
<g id="node17" class="node">
<title>16</title>
<polygon fill="#eb9c64" stroke="#000000" points="733.1545,-161.4014 620.9485,-161.4014 620.9485,-102.5986 733.1545,-102.5986 733.1545,-161.4014"/>
<text text-anchor="middle" x="677.0515" y="-144.6" font-family="Helvetica,sans-Serif" font-size="14.00" fill="#000000">gini = 0.293</text>
<text text-anchor="middle" x="677.0515" y="-127.8" font-family="Helvetica,sans-Serif" font-size="14.00" fill="#000000">samples = 56</text>
<text text-anchor="middle" x="677.0515" y="-111" font-family="Helvetica,sans-Serif" font-size="14.00" fill="#000000">value = [46, 10]</text>
</g>
<!-- 15&#45;&gt;16 -->
<g id="edge16" class="edge">
<title>15-&gt;16</title>
<path fill="none" stroke="#000000" d="M718.7226,-205.5528C712.3005,-194.2173 705.2466,-181.7665 698.7977,-170.3838"/>
<polygon fill="#000000" stroke="#000000" points="701.7539,-168.5012 693.7793,-161.5258 695.6634,-171.9518 701.7539,-168.5012"/>
</g>
<!-- 17 -->
<g id="node18" class="node">
<title>17</title>
<polygon fill="#e68844" stroke="#000000" points="855.3724,-161.4014 750.7306,-161.4014 750.7306,-102.5986 855.3724,-102.5986 855.3724,-161.4014"/>
<text text-anchor="middle" x="803.0515" y="-144.6" font-family="Helvetica,sans-Serif" font-size="14.00" fill="#000000">gini = 0.098</text>
<text text-anchor="middle" x="803.0515" y="-127.8" font-family="Helvetica,sans-Serif" font-size="14.00" fill="#000000">samples = 58</text>
<text text-anchor="middle" x="803.0515" y="-111" font-family="Helvetica,sans-Serif" font-size="14.00" fill="#000000">value = [55, 3]</text>
</g>
<!-- 15&#45;&gt;17 -->
<g id="edge17" class="edge">
<title>15-&gt;17</title>
<path fill="none" stroke="#000000" d="M761.3804,-205.5528C767.8025,-194.2173 774.8564,-181.7665 781.3053,-170.3838"/>
<polygon fill="#000000" stroke="#000000" points="784.4396,-171.9518 786.3237,-161.5258 778.3491,-168.5012 784.4396,-171.9518"/>
</g>
<!-- 19 -->
<g id="node20" class="node">
<title>19</title>
<polygon fill="#67b4eb" stroke="#000000" points="1005.828,-392.1003 864.275,-392.1003 864.275,-316.6997 1005.828,-316.6997 1005.828,-392.1003"/>
<text text-anchor="middle" x="935.0515" y="-375.4" font-family="Helvetica,sans-Serif" font-size="14.00" fill="#000000">OpenPrice &lt;= 9.895</text>
<text text-anchor="middle" x="935.0515" y="-358.6" font-family="Helvetica,sans-Serif" font-size="14.00" fill="#000000">gini = 0.307</text>
<text text-anchor="middle" x="935.0515" y="-341.8" font-family="Helvetica,sans-Serif" font-size="14.00" fill="#000000">samples = 127</text>
<text text-anchor="middle" x="935.0515" y="-325" font-family="Helvetica,sans-Serif" font-size="14.00" fill="#000000">value = [24, 103]</text>
</g>
<!-- 18&#45;&gt;19 -->
<g id="edge19" class="edge">
<title>18-&gt;19</title>
<path fill="none" stroke="#000000" d="M935.0515,-427.9528C935.0515,-419.62 935.0515,-410.6845 935.0515,-402.0137"/>
<polygon fill="#000000" stroke="#000000" points="938.5516,-402.0084 935.0515,-392.0085 931.5516,-402.0085 938.5516,-402.0084"/>
</g>
<!-- 22 -->
<g id="node23" class="node">
<title>22</title>
<polygon fill="#f3c5a4" stroke="#000000" points="1211.5935,-392.1003 1062.5095,-392.1003 1062.5095,-316.6997 1211.5935,-316.6997 1211.5935,-392.1003"/>
<text text-anchor="middle" x="1137.0515" y="-375.4" font-family="Helvetica,sans-Serif" font-size="14.00" fill="#000000">sellerRating &lt;= 813.0</text>
<text text-anchor="middle" x="1137.0515" y="-358.6" font-family="Helvetica,sans-Serif" font-size="14.00" fill="#000000">gini = 0.455</text>
<text text-anchor="middle" x="1137.0515" y="-341.8" font-family="Helvetica,sans-Serif" font-size="14.00" fill="#000000">samples = 263</text>
<text text-anchor="middle" x="1137.0515" y="-325" font-family="Helvetica,sans-Serif" font-size="14.00" fill="#000000">value = [171, 92]</text>
</g>
<!-- 18&#45;&gt;22 -->
<g id="edge22" class="edge">
<title>18-&gt;22</title>
<path fill="none" stroke="#000000" d="M1003.4395,-427.9528C1021.5379,-417.9896 1041.2014,-407.165 1059.737,-396.9612"/>
<polygon fill="#000000" stroke="#000000" points="1061.6615,-399.8972 1068.7339,-392.0085 1058.2857,-393.7649 1061.6615,-399.8972"/>
</g>
<!-- 20 -->
<g id="node21" class="node">
<title>20</title>
<polygon fill="#a0d0f3" stroke="#000000" points="941.1545,-272.6014 828.9485,-272.6014 828.9485,-213.7986 941.1545,-213.7986 941.1545,-272.6014"/>
<text text-anchor="middle" x="885.0515" y="-255.8" font-family="Helvetica,sans-Serif" font-size="14.00" fill="#000000">gini = 0.451</text>
<text text-anchor="middle" x="885.0515" y="-239" font-family="Helvetica,sans-Serif" font-size="14.00" fill="#000000">samples = 70</text>
<text text-anchor="middle" x="885.0515" y="-222.2" font-family="Helvetica,sans-Serif" font-size="14.00" fill="#000000">value = [24, 46]</text>
</g>
<!-- 19&#45;&gt;20 -->
<g id="edge20" class="edge">
<title>19-&gt;20</title>
<path fill="none" stroke="#000000" d="M918.1238,-316.7528C913.0774,-305.5295 907.5393,-293.213 902.4626,-281.9222"/>
<polygon fill="#000000" stroke="#000000" points="905.6206,-280.4109 898.3275,-272.7258 899.2363,-283.2816 905.6206,-280.4109"/>
</g>
<!-- 21 -->
<g id="node22" class="node">
<title>21</title>
<polygon fill="#399de5" stroke="#000000" points="1063.3724,-272.6014 958.7306,-272.6014 958.7306,-213.7986 1063.3724,-213.7986 1063.3724,-272.6014"/>
<text text-anchor="middle" x="1011.0515" y="-255.8" font-family="Helvetica,sans-Serif" font-size="14.00" fill="#000000">gini = 0.0</text>
<text text-anchor="middle" x="1011.0515" y="-239" font-family="Helvetica,sans-Serif" font-size="14.00" fill="#000000">samples = 57</text>
<text text-anchor="middle" x="1011.0515" y="-222.2" font-family="Helvetica,sans-Serif" font-size="14.00" fill="#000000">value = [0, 57]</text>
</g>
<!-- 19&#45;&gt;21 -->
<g id="edge21" class="edge">
<title>19-&gt;21</title>
<path fill="none" stroke="#000000" d="M960.7816,-316.7528C968.6056,-305.305 977.207,-292.7199 985.0488,-281.246"/>
<polygon fill="#000000" stroke="#000000" points="988.119,-282.9568 990.872,-272.7258 982.3397,-279.0069 988.119,-282.9568"/>
</g>
<!-- 23 -->
<g id="node24" class="node">
<title>23</title>
<polygon fill="#deeffb" stroke="#000000" points="1193.1545,-272.6014 1080.9485,-272.6014 1080.9485,-213.7986 1193.1545,-213.7986 1193.1545,-272.6014"/>
<text text-anchor="middle" x="1137.0515" y="-255.8" font-family="Helvetica,sans-Serif" font-size="14.00" fill="#000000">gini = 0.496</text>
<text text-anchor="middle" x="1137.0515" y="-239" font-family="Helvetica,sans-Serif" font-size="14.00" fill="#000000">samples = 77</text>
<text text-anchor="middle" x="1137.0515" y="-222.2" font-family="Helvetica,sans-Serif" font-size="14.00" fill="#000000">value = [35, 42]</text>
</g>
<!-- 22&#45;&gt;23 -->
<g id="edge23" class="edge">
<title>22-&gt;23</title>
<path fill="none" stroke="#000000" d="M1137.0515,-316.7528C1137.0515,-305.8662 1137.0515,-293.951 1137.0515,-282.9411"/>
<polygon fill="#000000" stroke="#000000" points="1140.5516,-282.7258 1137.0515,-272.7258 1133.5516,-282.7259 1140.5516,-282.7258"/>
</g>
<!-- 24 -->
<g id="node25" class="node">
<title>24</title>
<polygon fill="#efaf82" stroke="#000000" points="1367.3762,-280.9003 1210.7268,-280.9003 1210.7268,-205.4997 1367.3762,-205.4997 1367.3762,-280.9003"/>
<text text-anchor="middle" x="1289.0515" y="-264.2" font-family="Helvetica,sans-Serif" font-size="14.00" fill="#000000">sellerRating &lt;= 2107.0</text>
<text text-anchor="middle" x="1289.0515" y="-247.4" font-family="Helvetica,sans-Serif" font-size="14.00" fill="#000000">gini = 0.393</text>
<text text-anchor="middle" x="1289.0515" y="-230.6" font-family="Helvetica,sans-Serif" font-size="14.00" fill="#000000">samples = 186</text>
<text text-anchor="middle" x="1289.0515" y="-213.8" font-family="Helvetica,sans-Serif" font-size="14.00" fill="#000000">value = [136, 50]</text>
</g>
<!-- 22&#45;&gt;24 -->
<g id="edge24" class="edge">
<title>22-&gt;24</title>
<path fill="none" stroke="#000000" d="M1188.5118,-316.7528C1201.6352,-307.1519 1215.8522,-296.7511 1229.3495,-286.8768"/>
<polygon fill="#000000" stroke="#000000" points="1231.64,-289.5377 1237.6442,-280.8085 1227.5068,-283.8882 1231.64,-289.5377"/>
</g>
<!-- 25 -->
<g id="node26" class="node">
<title>25</title>
<polygon fill="#e89253" stroke="#000000" points="1266.3724,-161.4014 1161.7306,-161.4014 1161.7306,-102.5986 1266.3724,-102.5986 1266.3724,-161.4014"/>
<text text-anchor="middle" x="1214.0515" y="-144.6" font-family="Helvetica,sans-Serif" font-size="14.00" fill="#000000">gini = 0.208</text>
<text text-anchor="middle" x="1214.0515" y="-127.8" font-family="Helvetica,sans-Serif" font-size="14.00" fill="#000000">samples = 51</text>
<text text-anchor="middle" x="1214.0515" y="-111" font-family="Helvetica,sans-Serif" font-size="14.00" fill="#000000">value = [45, 6]</text>
</g>
<!-- 24&#45;&gt;25 -->
<g id="edge25" class="edge">
<title>24-&gt;25</title>
<path fill="none" stroke="#000000" d="M1263.6599,-205.5528C1255.9389,-194.105 1247.4507,-181.5199 1239.7121,-170.046"/>
<polygon fill="#000000" stroke="#000000" points="1242.4589,-167.8593 1233.9655,-161.5258 1236.6555,-171.7735 1242.4589,-167.8593"/>
</g>
<!-- 26 -->
<g id="node27" class="node">
<title>26</title>
<polygon fill="#f2be99" stroke="#000000" points="1441.3762,-169.7003 1284.7268,-169.7003 1284.7268,-94.2997 1441.3762,-94.2997 1441.3762,-169.7003"/>
<text text-anchor="middle" x="1363.0515" y="-153" font-family="Helvetica,sans-Serif" font-size="14.00" fill="#000000">sellerRating &lt;= 3499.0</text>
<text text-anchor="middle" x="1363.0515" y="-136.2" font-family="Helvetica,sans-Serif" font-size="14.00" fill="#000000">gini = 0.439</text>
<text text-anchor="middle" x="1363.0515" y="-119.4" font-family="Helvetica,sans-Serif" font-size="14.00" fill="#000000">samples = 135</text>
<text text-anchor="middle" x="1363.0515" y="-102.6" font-family="Helvetica,sans-Serif" font-size="14.00" fill="#000000">value = [91, 44]</text>
</g>
<!-- 24&#45;&gt;26 -->
<g id="edge26" class="edge">
<title>24-&gt;26</title>
<path fill="none" stroke="#000000" d="M1314.1045,-205.5528C1319.9511,-196.7671 1326.2435,-187.3115 1332.3052,-178.2025"/>
<polygon fill="#000000" stroke="#000000" points="1335.3979,-179.8726 1338.0243,-169.6085 1329.5703,-175.9946 1335.3979,-179.8726"/>
</g>
<!-- 27 -->
<g id="node28" class="node">
<title>27</title>
<polygon fill="#fbeade" stroke="#000000" points="1354.1545,-58.6014 1241.9485,-58.6014 1241.9485,.2014 1354.1545,.2014 1354.1545,-58.6014"/>
<text text-anchor="middle" x="1298.0515" y="-41.8" font-family="Helvetica,sans-Serif" font-size="14.00" fill="#000000">gini = 0.496</text>
<text text-anchor="middle" x="1298.0515" y="-25" font-family="Helvetica,sans-Serif" font-size="14.00" fill="#000000">samples = 55</text>
<text text-anchor="middle" x="1298.0515" y="-8.2" font-family="Helvetica,sans-Serif" font-size="14.00" fill="#000000">value = [30, 25]</text>
</g>
<!-- 26&#45;&gt;27 -->
<g id="edge27" class="edge">
<title>26-&gt;27</title>
<path fill="none" stroke="#000000" d="M1339.217,-94.3048C1333.6191,-85.4515 1327.6512,-76.013 1322.0463,-67.1487"/>
<polygon fill="#000000" stroke="#000000" points="1324.8921,-65.1003 1316.5895,-58.5186 1318.9756,-68.8413 1324.8921,-65.1003"/>
</g>
<!-- 28 -->
<g id="node29" class="node">
<title>28</title>
<polygon fill="#eda877" stroke="#000000" points="1484.1545,-58.6014 1371.9485,-58.6014 1371.9485,.2014 1484.1545,.2014 1484.1545,-58.6014"/>
<text text-anchor="middle" x="1428.0515" y="-41.8" font-family="Helvetica,sans-Serif" font-size="14.00" fill="#000000">gini = 0.362</text>
<text text-anchor="middle" x="1428.0515" y="-25" font-family="Helvetica,sans-Serif" font-size="14.00" fill="#000000">samples = 80</text>
<text text-anchor="middle" x="1428.0515" y="-8.2" font-family="Helvetica,sans-Serif" font-size="14.00" fill="#000000">value = [61, 19]</text>
</g>
<!-- 26&#45;&gt;28 -->
<g id="edge28" class="edge">
<title>26-&gt;28</title>
<path fill="none" stroke="#000000" d="M1386.886,-94.3048C1392.4839,-85.4515 1398.4518,-76.013 1404.0567,-67.1487"/>
<polygon fill="#000000" stroke="#000000" points="1407.1274,-68.8413 1409.5135,-58.5186 1401.2109,-65.1003 1407.1274,-68.8413"/>
</g>
</g>
</svg>